<svg xmlns="http://www.w3.org/2000/svg" viewBox="0 0 393.47 393.47"><g id="レイヤー_2" data-name="レイヤー 2"><g id="レイヤー_1-2" data-name="レイヤー 1"><path d="M383.52,335.43l-102-102c36.94-58.86,29.95-137.61-21.23-188.8-59.45-59.45-156.19-59.46-215.65,0s-59.45,156.19,0,215.65c51.19,51.17,129.94,58.18,188.81,21.24l102,102a34,34,0,1,0,48.08-48.09ZM232.77,232.76a113.64,113.64,0,1,1,0-160.71A113.77,113.77,0,0,1,232.77,232.76Z"/><path d="M121.76,64.17a11.17,11.17,0,1,0,7.32,21.11,70.6,70.6,0,0,1,73.58,16.89,11.17,11.17,0,1,0,15.79-15.79A94,94,0,0,0,121.76,64.17Z"/></g></g></svg>