<svg xmlns="http://www.w3.org/2000/svg" viewBox="0 0 459.12 453.4"><g id="レイヤー_2" data-name="レイヤー 2"><g id="レイヤー_1-2" data-name="レイヤー 1"><path d="M283,453.4a33.59,33.59,0,0,1-31.41-22l-5.91-16.27a157.38,157.38,0,0,1-33.82-.3L206,430.92a33.55,33.55,0,0,1-31.4,22,33.16,33.16,0,0,1-11.44-2L137,441.37a33.48,33.48,0,0,1-20-42.81l6.16-16.95A185.14,185.14,0,0,1,97.9,359.92l-15.5,8.94a33.4,33.4,0,0,1-45.65-12.25L22.82,332.5A33.46,33.46,0,0,1,35,286.86l16.24-9.37a184,184,0,0,1-5.2-32.34l-18.46-3.26A33.4,33.4,0,0,1,.52,203.16l4.84-27.41a33.41,33.41,0,0,1,38.71-27.11L63.22,152a186.24,186.24,0,0,1,16.46-27.86L67.27,109.41A33.46,33.46,0,0,1,71.4,62.33l21.33-17.9C106.33,33,128.4,35,139.81,48.55l12.64,15.07a183.77,183.77,0,0,1,30.36-11V33.42A33.46,33.46,0,0,1,216.23,0h27.85a33.45,33.45,0,0,1,33.41,33.42V52.6a183.32,183.32,0,0,1,30.67,11.15l12-14.29c11.41-13.61,33.49-15.56,47.08-4.1l21.35,17.88a33.5,33.5,0,0,1,4.12,47.08l-11.9,14.16a184.33,184.33,0,0,1,16.73,28.65l17.52-3.1a33.28,33.28,0,0,1,38.72,27.14l4.83,27.41a33.48,33.48,0,0,1-27.08,38.71l-17.44,3.07a185.48,185.48,0,0,1-5.71,33.21l14.74,8.51a33.42,33.42,0,0,1,12.21,45.68l-13.92,24.12a33.5,33.5,0,0,1-29,16.69h0a33.39,33.39,0,0,1-16.67-4.46l-14.95-8.64a184.29,184.29,0,0,1-26,21.74L340.54,399a33.46,33.46,0,0,1-20,42.84l-26.17,9.53A33.25,33.25,0,0,1,283,453.4ZM260.6,390.73l12,33a11.23,11.23,0,0,0,14.13,6.59l26.19-9.54a11,11,0,0,0,6.58-14.15L307.59,374l7.75-4.79a162.9,162.9,0,0,0,35.14-29.32l6.07-6.72L387,350.71a11,11,0,0,0,5.49,1.46h0a11,11,0,0,0,9.55-5.48l13.93-24.15a10.86,10.86,0,0,0,1.12-8.35,11,11,0,0,0-5.15-6.72L381.69,290l2.8-8.62a163,163,0,0,0,7.74-44.89l.29-9.07,35.1-6.19a11.07,11.07,0,0,0,8.94-12.78L431.72,181a11,11,0,0,0-12.78-9l-35.08,6.19-3.41-8.36A162.19,162.19,0,0,0,357.73,131l-5.62-7.15,23.44-27.91a11.07,11.07,0,0,0-1.36-15.53L352.84,62.5a10.87,10.87,0,0,0-7.07-2.59,11,11,0,0,0-8.47,4l-23.46,28-8-4.23A161.78,161.78,0,0,0,264,72.4l-10.82-2.3,2-9.87V33.42a11,11,0,0,0-11-11H216.23a11,11,0,0,0-11,11l0,37.1-8.88,1.88a160.34,160.34,0,0,0-41.66,15.09l-8.05,4.23-24-28.78a11,11,0,0,0-15.53-1.36L85.79,79.49A11,11,0,0,0,84.44,95l23.84,28.71-5.51,7A162.35,162.35,0,0,0,80.2,168.9l-3.52,8.48-9.79-2L40.17,170.7a11,11,0,0,0-12.76,8.93l-4.84,27.42a11,11,0,0,0,8.94,12.77l36.27,6.42L68,235.4a161.79,161.79,0,0,0,7.1,44.1l2.66,8.56L46.25,306.25a11,11,0,0,0-4,15.05l13.93,24.14a11.24,11.24,0,0,0,15.05,4l31.18-18,6.06,6.86a162.53,162.53,0,0,0,34.28,29.46l7.54,4.84L138,406.19a11.05,11.05,0,0,0,6.58,14.13l26.19,9.53a11.16,11.16,0,0,0,14.13-6.6L197,390.18l9,1.34c17.25,2.58,28.2,2.73,45.64.4Zm-31-53.69A110.34,110.34,0,1,1,339.9,226.7,110.46,110.46,0,0,1,229.57,337Zm0-198.28A87.95,87.95,0,1,0,317.5,226.7,88,88,0,0,0,229.57,138.76Z"/><path d="M229.56,288.5a61.8,61.8,0,1,1,61.8-61.8A61.85,61.85,0,0,1,229.56,288.5Zm0-101.21A39.41,39.41,0,1,0,269,226.7,39.46,39.46,0,0,0,229.56,187.29Z"/></g></g></svg>