<svg xmlns="http://www.w3.org/2000/svg" viewBox="0 0 110 195"><defs><style>.cls-1{fill:#fff;}</style></defs><g id="レイヤー_2" data-name="レイヤー 2"><g id="レイヤー_2-2" data-name="レイヤー 2"><path class="cls-1" d="M101.93,0H8.07A8.07,8.07,0,0,0,0,8.07V186.93A8.07,8.07,0,0,0,8.07,195h93.86a8.07,8.07,0,0,0,8.07-8.07V8.07A8.07,8.07,0,0,0,101.93,0ZM100,181.78a3.47,3.47,0,0,1-3.47,3.47H13.47A3.47,3.47,0,0,1,10,181.78V13.72a3.47,3.47,0,0,1,3.47-3.47H96.53A3.47,3.47,0,0,1,100,13.72Z"/><rect class="cls-1" x="37" y="8.25" width="35" height="8" rx="1.45"/></g></g></svg>