<svg xmlns="http://www.w3.org/2000/svg" viewBox="0 0 79 79"><defs><style>.cls-1{fill:#fff;}.cls-2{fill:none;stroke:#000;stroke-miterlimit:10;stroke-width:5px;}</style></defs><g id="レイヤー_2" data-name="レイヤー 2"><g id="レイヤー_1-2" data-name="レイヤー 1"><rect class="cls-1" x="2.5" y="2.5" width="74" height="74" rx="7.73"/><path d="M68.77,5A5.24,5.24,0,0,1,74,10.23V68.77A5.24,5.24,0,0,1,68.77,74H10.23A5.24,5.24,0,0,1,5,68.77V10.23A5.24,5.24,0,0,1,10.23,5H68.77m0-5H10.23A10.23,10.23,0,0,0,0,10.23V68.77A10.23,10.23,0,0,0,10.23,79H68.77A10.23,10.23,0,0,0,79,68.77V10.23A10.23,10.23,0,0,0,68.77,0Z"/><line class="cls-2" x1="59.5" y1="19.5" x2="19.5" y2="59.5"/><line class="cls-2" x1="19.5" y1="19.5" x2="59.5" y2="59.5"/></g></g></svg>