<svg xmlns="http://www.w3.org/2000/svg" viewBox="0 0 425.69 425.69" fill="#000000">
<path d="M255.61,165.44H203.18V113a18.88,18.88,0,0,0-37.75,0v52.44H113a18.88,18.88,0,1,0,0,37.75h52.42v52.43a18.88,18.88,0,0,0,37.75,0V203.19h52.43a18.88,18.88,0,1,0,0-37.75Z"/>
<path d="M416.48,372l-81.67-81.66a183.05,183.05,0,0,0,33.8-106C368.61,82.69,285.93,0,184.31,0S0,82.69,0,184.31,82.68,368.62,184.31,368.62a183.13,183.13,0,0,0,106-33.8L372,416.47A31.46,31.46,0,1,0,416.48,372ZM37.75,184.31c0-80.82,65.75-146.56,146.56-146.56s146.55,65.74,146.55,146.56S265.12,330.87,184.31,330.87,37.75,265.13,37.75,184.31Z"/>
</svg>