<svg xmlns="http://www.w3.org/2000/svg" viewBox="0 0 508.67 457.62" fill="#040000">
  <path d="M505.47,233.58,265,4.29a15.5,15.5,0,0,0-21.41,0L3.2,233.58a10.26,10.26,0,0,0,7.08,17.68H57.35a14.32,14.32,0,0,1,14.32,14.32V443.31A14.32,14.32,0,0,0,86,457.62H190.36a14.32,14.32,0,0,0,14.32-14.31V307.73A14.32,14.32,0,0,1,219,293.41h70.67A14.32,14.32,0,0,1,304,307.73V443.31a14.32,14.32,0,0,0,14.32,14.31H422.68A14.32,14.32,0,0,0,437,443.31V265.58a14.32,14.32,0,0,1,14.32-14.32H498.4A10.26,10.26,0,0,0,505.47,233.58Z"/>
</svg>