<svg xmlns="http://www.w3.org/2000/svg" viewBox="0 0 467.12 461.4" stroke="#231815">
  <path d="M287,457.4a33.59,33.59,0,0,1-31.41-22l-5.91-16.27a157.38,157.38,0,0,1-33.82-.3L210,434.92a33.55,33.55,0,0,1-31.4,22,33.16,33.16,0,0,1-11.44-2L141,445.37a33.48,33.48,0,0,1-20-42.81l6.16-16.95a185.14,185.14,0,0,1-25.25-21.69l-15.5,8.94a33.4,33.4,0,0,1-45.65-12.25L26.82,336.5A33.46,33.46,0,0,1,39,290.86l16.24-9.37a184,184,0,0,1-5.2-32.34l-18.46-3.26a33.4,33.4,0,0,1-27.1-38.73l4.84-27.41a33.41,33.41,0,0,1,38.71-27.11L67.22,156a186.24,186.24,0,0,1,16.46-27.86L71.27,113.41A33.46,33.46,0,0,1,75.4,66.33l21.33-17.9C110.33,37,132.4,39,143.81,52.55l12.64,15.07a183.77,183.77,0,0,1,30.36-11V37.42A33.46,33.46,0,0,1,220.23,4h27.85a33.45,33.45,0,0,1,33.41,33.42V56.6a183.32,183.32,0,0,1,30.67,11.15l12-14.29c11.41-13.61,33.49-15.56,47.08-4.1l21.35,17.88a33.5,33.5,0,0,1,4.12,47.08l-11.9,14.16a184.33,184.33,0,0,1,16.73,28.65l17.52-3.1a33.28,33.28,0,0,1,38.72,27.14l4.83,27.41a33.48,33.48,0,0,1-27.08,38.71l-17.44,3.07a185.48,185.48,0,0,1-5.71,33.21l14.74,8.51a33.42,33.42,0,0,1,12.21,45.68l-13.92,24.12a33.5,33.5,0,0,1-29,16.69h0a33.39,33.39,0,0,1-16.67-4.46l-14.95-8.64a184.29,184.29,0,0,1-26,21.74L344.54,403a33.46,33.46,0,0,1-20,42.84l-26.17,9.53A33.25,33.25,0,0,1,287,457.4ZM264.6,394.73l12,33a11.23,11.23,0,0,0,14.13,6.59l26.19-9.54a11,11,0,0,0,6.58-14.15L311.59,378l7.75-4.79a162.9,162.9,0,0,0,35.14-29.32l6.07-6.72L391,354.71a11,11,0,0,0,5.49,1.46h0a11,11,0,0,0,9.55-5.48l13.93-24.15a10.86,10.86,0,0,0,1.12-8.35,11,11,0,0,0-5.15-6.72L385.69,294l2.8-8.62a163,163,0,0,0,7.74-44.89l.29-9.07,35.1-6.19a11.07,11.07,0,0,0,8.94-12.78L435.72,185a11,11,0,0,0-12.78-9l-35.08,6.19-3.41-8.36A162.19,162.19,0,0,0,361.73,135l-5.62-7.15,23.44-27.91a11.07,11.07,0,0,0-1.36-15.53L356.84,66.5a10.87,10.87,0,0,0-7.07-2.59,11,11,0,0,0-8.47,4l-23.46,28-8-4.23A161.78,161.78,0,0,0,268,76.4l-10.82-2.3,2-9.87V37.42a11,11,0,0,0-11-11H220.23a11,11,0,0,0-11,11l0,37.1-8.88,1.88a160.34,160.34,0,0,0-41.66,15.09l-8.05,4.23-24-28.78a11,11,0,0,0-15.53-1.36L89.79,83.49A11,11,0,0,0,88.44,99l23.84,28.71-5.51,7A162.35,162.35,0,0,0,84.2,172.9l-3.52,8.48-9.79-2L44.17,174.7a11,11,0,0,0-12.76,8.93l-4.84,27.42a11,11,0,0,0,8.94,12.77l36.27,6.42L72,239.4a161.79,161.79,0,0,0,7.1,44.1l2.66,8.56L50.25,310.25a11,11,0,0,0-4,15.05l13.93,24.14a11.24,11.24,0,0,0,15.05,4l31.18-18,6.06,6.86a162.53,162.53,0,0,0,34.28,29.46l7.54,4.84L142,410.19a11.05,11.05,0,0,0,6.58,14.13l26.19,9.53a11.16,11.16,0,0,0,14.13-6.6L201,394.18l9,1.34c17.25,2.58,28.2,2.73,45.64.4Zm-31-53.69A110.34,110.34,0,1,1,343.9,230.7,110.46,110.46,0,0,1,233.57,341Zm0-198.28A87.95,87.95,0,1,0,321.5,230.7,88,88,0,0,0,233.57,142.76Z" style="stroke-miterlimit:10;stroke-width:8px"/>
  <path d="M233.57,283.21a52.53,52.53,0,1,1,52.52-52.52A52.57,52.57,0,0,1,233.57,283.21Zm0-86a33.5,33.5,0,1,0,33.49,33.5A33.53,33.53,0,0,0,233.57,197.19Z" style="stroke-miterlimit:10;stroke-width:8px"/>
</svg>