<svg xmlns="http://www.w3.org/2000/svg" viewBox="0 0 508.67 457.62" stroke="#231815" fill="#231815">
<path d="M254.34,49.35,429.1,216A54.38,54.38,0,0,0,397,265.58v152H344V307.73a54.38,54.38,0,0,0-54.32-54.32H219a54.38,54.38,0,0,0-54.32,54.32V417.62h-53v-152A54.39,54.39,0,0,0,79.58,216L254.34,49.35m0-49.35a15.47,15.47,0,0,0-10.71,4.29L3.2,233.58a10.26,10.26,0,0,0,7.08,17.68H57.35a14.32,14.32,0,0,1,14.32,14.32V443.31A14.32,14.32,0,0,0,86,457.62H190.36a14.32,14.32,0,0,0,14.32-14.31V307.73A14.32,14.32,0,0,1,219,293.41h70.67A14.32,14.32,0,0,1,304,307.73V443.31a14.32,14.32,0,0,0,14.32,14.31H422.68A14.32,14.32,0,0,0,437,443.31V265.58a14.32,14.32,0,0,1,14.32-14.32H498.4a10.26,10.26,0,0,0,7.07-17.68L265,4.29A15.45,15.45,0,0,0,254.34,0Z"/>
</svg>