<svg xmlns="http://www.w3.org/2000/svg" viewBox="0 0 26.24 5.4"><g id="レイヤー_2" data-name="レイヤー 2"><g id="SUUGO"><path d="M0,4.52l.71-.58A1.5,1.5,0,0,0,2,4.6c.65,0,1.1-.38,1.1-.85,0-.3-.18-.47-.55-.59L2,3a1.19,1.19,0,0,1-1-1.2A2,2,0,0,1,3.25,0,1.88,1.88,0,0,1,4.91.77l-.69.6A1.23,1.23,0,0,0,3.12.79a1,1,0,0,0-1.06.84c0,.31.19.5.56.62l.52.16a1.19,1.19,0,0,1,1,1.19A2.05,2.05,0,0,1,1.89,5.4,2.24,2.24,0,0,1,0,4.52Z"/><path d="M5.17,3.79a2.3,2.3,0,0,1,.09-.65L6.08.08h1L6.21,3.25a1.84,1.84,0,0,0-.07.47c0,.55.33.85.92.85A1.31,1.31,0,0,0,8.37,3.43L9.26.08h1l-.9,3.34A2.23,2.23,0,0,1,7,5.4C5.91,5.4,5.17,4.85,5.17,3.79Z"/><path d="M10.54,3.79a2.67,2.67,0,0,1,.08-.65L11.45.08h1l-.85,3.17a1.92,1.92,0,0,0-.08.47c0,.55.34.85.93.85a1.32,1.32,0,0,0,1.31-1.14L14.63.08h1l-.9,3.34a2.23,2.23,0,0,1-2.36,2C11.27,5.4,10.54,4.85,10.54,3.79Z"/><path d="M15.78,3.18a3.22,3.22,0,0,1,3-3.18,1.91,1.91,0,0,1,1.88,1.29l-.85.46c-.23-.62-.54-.92-1.1-.92a2.25,2.25,0,0,0-1.93,2.4c0,.87.44,1.34,1.18,1.34a1.88,1.88,0,0,0,.74-.14.72.72,0,0,0,.45-.56l.34-1.23h.95l-.56,2.07A2.89,2.89,0,0,1,18,5.4,2.09,2.09,0,0,1,15.78,3.18Z"/><path d="M21.2,3.21a3.22,3.22,0,0,1,3-3.21,2,2,0,0,1,2.06,2.18,3.23,3.23,0,0,1-3,3.22A2.05,2.05,0,0,1,21.2,3.21Zm4-1.11A1.12,1.12,0,0,0,24.1.83c-1.1,0-1.88,1.25-1.88,2.46,0,.78.42,1.28,1.11,1.28C24.44,4.57,25.22,3.32,25.22,2.1Z"/></g></g></svg>