<svg id="レイヤー_1" data-name="レイヤー 1" xmlns="http://www.w3.org/2000/svg" viewBox="0 0 26.24 5.4">
<path d="M1.88,7.16l.71-.59a1.51,1.51,0,0,0,1.3.67c.65,0,1.1-.39,1.1-.85,0-.3-.18-.48-.55-.6l-.52-.16A1.21,1.21,0,0,1,3,4.42,2,2,0,0,1,5.13,2.63a1.9,1.9,0,0,1,1.66.77L6.1,4A1.21,1.21,0,0,0,5,3.43a1,1,0,0,0-1.06.83c0,.31.19.5.56.62L5,5.05A1.18,1.18,0,0,1,6,6.23,2.05,2.05,0,0,1,3.77,8,2.23,2.23,0,0,1,1.88,7.16Z" transform="translate(-1.88 -2.63)"/>
<path d="M7.05,6.42a2.23,2.23,0,0,1,.09-.64L8,2.71h1L8.09,5.88A1.84,1.84,0,0,0,8,6.35a.8.8,0,0,0,.92.86,1.31,1.31,0,0,0,1.31-1.15l.89-3.35h1l-.9,3.35A2.23,2.23,0,0,1,8.86,8C7.79,8,7.05,7.48,7.05,6.42Z" transform="translate(-1.88 -2.63)"/><path d="M12.42,6.42a2.6,2.6,0,0,1,.08-.64l.83-3.07h1l-.85,3.17a1.92,1.92,0,0,0-.08.47c0,.56.34.86.93.86a1.32,1.32,0,0,0,1.31-1.15l.89-3.35h1l-.9,3.35a2.23,2.23,0,0,1-2.36,2C13.15,8,12.42,7.48,12.42,6.42Z" transform="translate(-1.88 -2.63)"/><path d="M17.66,5.82a3.22,3.22,0,0,1,3-3.19,1.92,1.92,0,0,1,1.88,1.3l-.85.46c-.23-.63-.54-.93-1.1-.93-1.15,0-1.93,1.25-1.93,2.41,0,.86.44,1.34,1.18,1.34a1.88,1.88,0,0,0,.74-.15.72.72,0,0,0,.45-.56l.34-1.23h1l-.56,2.07A2.89,2.89,0,0,1,19.86,8,2.09,2.09,0,0,1,17.66,5.82Z" transform="translate(-1.88 -2.63)"/><path d="M23.08,5.85a3.22,3.22,0,0,1,3-3.22,2.05,2.05,0,0,1,2.06,2.19,3.22,3.22,0,0,1-3,3.21A2,2,0,0,1,23.08,5.85Zm4-1.11c0-.78-.42-1.28-1.12-1.28-1.1,0-1.88,1.25-1.88,2.47,0,.78.42,1.28,1.11,1.28C26.32,7.21,27.1,6,27.1,4.74Z" transform="translate(-1.88 -2.63)"/></svg>