<svg xmlns="http://www.w3.org/2000/svg" viewBox="0 0 433.39 416.92" fill="#040000">
<path d="M426.51,377.52l-90.78-89.28a183,183,0,0,0,32.4-104.17C368.13,82.57,285.56,0,184.07,0S0,82.57,0,184.07,82.57,368.13,184.07,368.13a183.3,183.3,0,0,0,121-45.5l89.16,87.68a23,23,0,0,0,32.25-32.79ZM184.07,338.13C99.11,338.13,30,269,30,184.07S99.11,30,184.07,30,338.13,99.11,338.13,184.07,269,338.13,184.07,338.13Z"/>
<path d="M254.93,168.07H200.07V113.2a16,16,0,1,0-32,0v54.87H113.2a16,16,0,1,0,0,32h54.87v54.86a16,16,0,0,0,32,0V200.07h54.86a16,16,0,0,0,0-32Z"/>
</svg>